<svg width="287" height="140" viewBox="0 0 287 140" fill="none" xmlns="http://www.w3.org/2000/svg">
<g filter="url(#filter0_d_6_3)">
<path d="M275 127.5C275 110.756 271.443 94.1769 264.533 78.7079C257.623 63.2388 247.495 49.1834 234.727 37.3439C221.959 25.5044 206.801 16.1128 190.119 9.70536C173.437 3.29788 155.557 -7.31883e-07 137.5 0C119.443 7.31883e-07 101.563 3.29789 84.881 9.70536C68.1988 16.1128 53.0409 25.5044 40.2728 37.3439C27.5048 49.1834 17.3766 63.2389 10.4666 78.7079C3.55654 94.1769 -1.57857e-06 110.756 0 127.5L137.5 127.5H275Z" fill="url(#paint0_linear_6_3)"/>
</g>
<defs>
<filter id="filter0_d_6_3" x="0" y="0" width="287" height="139.5" filterUnits="userSpaceOnUse" color-interpolation-filters="sRGB">
<feFlood flood-opacity="0" result="BackgroundImageFix"/>
<feColorMatrix in="SourceAlpha" type="matrix" values="0 0 0 0 0 0 0 0 0 0 0 0 0 0 0 0 0 0 127 0" result="hardAlpha"/>
<feOffset dx="8" dy="8"/>
<feGaussianBlur stdDeviation="2"/>
<feComposite in2="hardAlpha" operator="out"/>
<feColorMatrix type="matrix" values="0 0 0 0 0 0 0 0 0 0 0 0 0 0 0 0 0 0 0.25 0"/>
<feBlend mode="normal" in2="BackgroundImageFix" result="effect1_dropShadow_6_3"/>
<feBlend mode="normal" in="SourceGraphic" in2="effect1_dropShadow_6_3" result="shape"/>
</filter>
<linearGradient id="paint0_linear_6_3" x1="104" y1="103" x2="295.282" y2="-54.7182" gradientUnits="userSpaceOnUse">
<stop stop-color="#3BEF56"/>
<stop offset="0.785" stop-color="#0AB1BB"/>
</linearGradient>
</defs>
</svg>
