<svg width="130" height="124" viewBox="0 0 130 124" fill="none" xmlns="http://www.w3.org/2000/svg">
<g filter="url(#filter0_d_6_24)">
<path d="M32.0688 11.5767C35.1222 1.44494 47.4241 -2.42505 55.7281 4.13382L63.7746 10.4893C67.5385 13.4622 72.4973 14.4559 77.1161 13.1627L86.4268 10.5559C97.3544 7.49637 107.591 17.2098 105.107 28.2826L103.812 34.0575C102.636 39.3053 104.358 44.7815 108.328 48.4104L112.696 52.4037C121.071 60.0607 118.239 73.8851 107.528 77.6328L98.4019 80.8259C93.8746 82.41 90.3778 86.0636 88.9938 90.656L86.0351 100.474C82.9817 110.605 70.6798 114.475 62.3758 107.916L54.3293 101.561C50.5654 98.588 45.6066 97.5944 40.9878 98.8876L31.6771 101.494C20.7495 104.554 10.5133 94.8404 12.9964 83.7676L14.2914 77.9928C15.4682 72.745 13.7455 67.2688 9.77622 63.6399L5.40828 59.6465C-2.96691 51.9895 -0.135389 38.1652 10.5757 34.4175L19.702 31.2243C24.2293 29.6402 27.7261 25.9866 29.1101 21.3942L32.0688 11.5767Z" fill="url(#paint0_linear_6_24)"/>
</g>
<defs>
<filter id="filter0_d_6_24" x="0.524109" y="0.8965" width="129.056" height="122.257" filterUnits="userSpaceOnUse" color-interpolation-filters="sRGB">
<feFlood flood-opacity="0" result="BackgroundImageFix"/>
<feColorMatrix in="SourceAlpha" type="matrix" values="0 0 0 0 0 0 0 0 0 0 0 0 0 0 0 0 0 0 127 0" result="hardAlpha"/>
<feOffset dx="8" dy="8"/>
<feGaussianBlur stdDeviation="2"/>
<feComposite in2="hardAlpha" operator="out"/>
<feColorMatrix type="matrix" values="0 0 0 0 0 0 0 0 0 0 0 0 0 0 0 0 0 0 0.25 0"/>
<feBlend mode="normal" in2="BackgroundImageFix" result="effect1_dropShadow_6_24"/>
<feBlend mode="normal" in="SourceGraphic" in2="effect1_dropShadow_6_24" result="shape"/>
</filter>
<linearGradient id="paint0_linear_6_24" x1="-6.64348" y1="96.7232" x2="120.435" y2="9.07497" gradientUnits="userSpaceOnUse">
<stop stop-color="#EA2929"/>
<stop offset="1" stop-color="#841717"/>
</linearGradient>
</defs>
</svg>
